<svg xmlns="http://www.w3.org/2000/svg" width="512" height="512" viewBox="0 0 512 512" role="img" aria-hidden="true">
  <!-- Background -->
  <circle cx="256" cy="256" r="256" fill="#F394A4"/>

  <!-- Crab: white stroke, no fill, claws up, six legs -->
  <g transform="translate(256 260)" stroke="#FFFFFF" stroke-width="16" stroke-linecap="round" stroke-linejoin="round" fill="none">
    <!-- Body -->
    <ellipse cx="0" cy="30" rx="96" ry="66"/>

    <!-- Eyes on stalks -->
    <g>
      <path d="M-28 -14 L-28 -46"/>
      <path d="M 28 -14 L 28 -46"/>
      <circle cx="-28" cy="-56" r="10"/>
      <circle cx="28"  cy="-56" r="10"/>
    </g>

    <!-- Mouth line -->
    <path d="M-36 42 Q 0 62 36 42"/>

    <!-- Claws up -->
    <!-- Left claw -->
    <path d="M-96 0 C -128 -32 -128 -84 -96 -110"/>
    <path d="M-96 -110 C -78 -90 -70 -64 -86 -40"/>
    <!-- Right claw -->
    <path d="M 96 0 C 128 -32 128 -84 96 -110"/>
    <path d="M 96 -110 C 78 -90 70 -64 86 -40"/>

    <!-- Legs (3 per side) -->
    <!-- Left legs -->
    <path d="M-70 56  C -116 54  -126 64 -150 84"/>
    <path d="M-40 68  C -94  72  -110 86 -132 106"/>
    <path d="M-10 72  C -66  84  -88 100 -110 120"/>
    <!-- Right legs -->
    <path d="M 70 56  C 116 54   126 64  150 84"/>
    <path d="M 40 68  C 94  72   110 86  132 106"/>
    <path d="M 10 72  C 66  84    88 100 110 120"/>
  </g>

  <!-- Subtle vignette -->
  <defs>
    <radialGradient id="v" cx="50%" cy="40%" r="70%">
      <stop offset="0%" stop-color="rgba(0,0,0,0)"/>
      <stop offset="100%" stop-color="rgba(0,0,0,0.12)"/>
    </radialGradient>
  </defs>
  <circle cx="256" cy="256" r="256" fill="url(#v)"/>
</svg>
