<?xml version="1.0" encoding="UTF-8"?>
<svg version="1.1" xmlns="http://www.w3.org/2000/svg" width="512" height="512">
<path d="M0 0 C0.90330048 0.00215515 1.80660095 0.0043103 2.73727417 0.00653076 C16.31159182 0.05845282 29.55559827 0.46601495 42.875 3.3125 C43.82503906 3.51117676 44.77507812 3.70985352 45.75390625 3.91455078 C88.77600199 13.17817946 125.38091656 33.98199107 156.875 64.3125 C157.6690625 65.0653125 158.463125 65.818125 159.28125 66.59375 C164.63125155 71.77391023 169.29750166 77.44619145 173.875 83.3125 C174.3071582 83.86292969 174.73931641 84.41335937 175.18457031 84.98046875 C182.87478123 94.84966517 189.14187499 105.20228411 194.875 116.3125 C195.23190918 116.99505859 195.58881836 117.67761719 195.95654297 118.38085938 C208.59118307 142.80743459 216.83602049 171.36698976 217.11328125 198.96484375 C217.1230751 199.77387146 217.13286896 200.58289917 217.14295959 201.41644287 C217.50808711 239.43241975 211.0893898 274.63640326 192.875 308.3125 C192.50391113 308.99957031 192.13282227 309.68664062 191.75048828 310.39453125 C182.86102343 326.62975888 171.74089667 341.03579096 158.875 354.3125 C158.40819824 354.79444824 157.94139648 355.27639648 157.46044922 355.77294922 C143.84414041 369.76967961 128.89810255 381.67082907 111.875 391.3125 C111.14104004 391.72999512 110.40708008 392.14749023 109.65087891 392.57763672 C92.20311801 402.38383627 74.08262265 409.70914908 54.6875 414.6875 C53.81182373 414.9141333 52.93614746 415.1407666 52.03393555 415.37426758 C35.08354596 419.4468334 18.07435301 420.87345116 0.6875 420.75 C-0.71057892 420.74493942 -0.71057892 420.74493942 -2.13690186 420.73977661 C-60.78310531 420.43383885 -112.8446158 397.39825997 -155.125 357.3125 C-156.00285156 356.48878906 -156.88070312 355.66507812 -157.78515625 354.81640625 C-164.63899224 348.20153126 -170.45977115 340.94455727 -176.125 333.3125 C-176.72658936 332.50208252 -176.72658936 332.50208252 -177.34033203 331.67529297 C-183.71780635 322.98554932 -189.11955827 313.84452351 -194.125 304.3125 C-194.46917969 303.65830078 -194.81335938 303.00410156 -195.16796875 302.33007812 C-207.9675617 277.58910247 -216.15698066 248.81765489 -216.328125 220.859375 C-216.33513931 220.08526276 -216.34215363 219.31115051 -216.34938049 218.51358032 C-216.36677625 216.02982688 -216.37323265 213.54631212 -216.375 211.0625 C-216.37567474 210.21246399 -216.37634949 209.36242798 -216.37704468 208.4866333 C-216.36071843 195.53884719 -215.8646713 183.01044502 -213.125 170.3125 C-212.87556641 169.1066626 -212.87556641 169.1066626 -212.62109375 167.87646484 C-201.37843969 114.79656388 -168.6330478 67.09763329 -123.55664062 36.89160156 C-86.24423627 12.66101608 -44.45264362 -0.19123815 0 0 Z " fill="#9EC4E7" transform="translate(249.125,40.6875)"/>
<path d="M0 0 C35.97 0 71.94 0 109 0 C109.33 7.59 109.66 15.18 110 23 C112.39032544 29.70881501 112.39032544 29.70881501 115.8125 35.3125 C121.55512763 43.60112017 125.87158739 52.68377274 130.33203125 61.703125 C132.06193629 65.12242207 133.90246202 68.44851001 135.859375 71.7421875 C140.30949655 80.55098974 140.42289489 88.40671389 140.37231445 98.09887695 C140.37474502 99.73063895 140.3784669 101.36239946 140.38337708 102.99415588 C140.39274975 107.4070462 140.38339323 111.81971333 140.37004495 116.23258615 C140.35870123 120.85429163 140.36283997 125.47598661 140.36479187 130.09770203 C140.36567348 137.85236241 140.35461862 145.60693515 140.33618164 153.36157227 C140.31497874 162.3310234 140.31151284 171.30034652 140.3177436 180.26981765 C140.32343283 188.90145009 140.31779922 197.53303739 140.30657005 206.16466331 C140.30192202 209.8380536 140.30105105 213.5114163 140.3031559 217.18480873 C140.30503605 221.50472083 140.29695605 225.82450211 140.2810955 230.14438438 C140.27684512 231.73149449 140.27600715 233.31861784 140.27878571 234.9057312 C140.28199711 237.06765462 140.27295267 239.22918456 140.26069641 241.3910675 C140.25761711 243.20754524 140.25761711 243.20754524 140.25447559 245.06071949 C140 248 140 248 138 251 C135.15139008 251.37473011 135.15139008 251.37473011 131.4329834 251.3742218 C130.75073244 251.37819621 130.06848147 251.38217061 129.36555624 251.38626546 C127.06836504 251.39592722 124.77178377 251.38404756 122.47460938 251.37231445 C120.83225778 251.37474115 119.18990767 251.37845928 117.54756165 251.38337708 C113.07860163 251.39280648 108.60985984 251.38334354 104.14091682 251.37004495 C99.47199583 251.35875525 94.80308598 251.36283603 90.13415527 251.36479187 C82.29236268 251.36567563 74.45065639 251.35457727 66.60888672 251.33618164 C57.53275029 251.31501275 48.45674036 251.31150364 39.38058424 251.3177436 C30.6624633 251.32343135 21.94438708 251.31779856 13.22627258 251.30657005 C9.51018958 251.30191624 5.79413384 251.30105359 2.07804871 251.3031559 C-2.29513061 251.3050347 -6.66818053 251.29696651 -11.04133034 251.2810955 C-12.6498187 251.27684021 -14.25832016 251.27601042 -15.86681175 251.27878571 C-18.05567931 251.28199034 -20.24415605 251.2729697 -22.4329834 251.26069641 C-23.6600576 251.25864354 -24.88713181 251.25659067 -26.15139008 251.25447559 C-29 251 -29 251 -31 249 C-31.25447559 246.17094326 -31.25447559 246.17094326 -31.26069641 242.48008728 C-31.26452196 241.80277528 -31.26834751 241.12546328 -31.27228898 240.42762667 C-31.28264785 238.14690439 -31.27862135 235.86643251 -31.2746582 233.58569336 C-31.27900334 231.95469936 -31.28418582 230.3237074 -31.29014587 228.69271851 C-31.30357497 224.25226875 -31.30410975 219.81190391 -31.30158257 215.37143779 C-31.30051455 211.66406903 -31.30539239 207.95671758 -31.310188 204.24935251 C-31.32129873 195.49735799 -31.32171315 186.74540637 -31.31567383 177.9934082 C-31.30964469 168.97305328 -31.32191445 159.95285476 -31.3432439 150.93252653 C-31.36088527 143.18632735 -31.36685688 135.44017781 -31.36360615 127.6939593 C-31.36179569 123.06864939 -31.36440496 118.44345079 -31.37832069 113.8181591 C-31.39093406 109.46216526 -31.38892184 105.10641373 -31.37590981 100.75042343 C-31.37355132 99.15615696 -31.37625248 97.56187328 -31.38453293 95.96762657 C-31.43608137 85.26629506 -30.32475261 77.05560636 -25.3125 67.4375 C-24.87550781 66.59058594 -24.43851563 65.74367188 -23.98828125 64.87109375 C-23.49908203 63.94490234 -23.49908203 63.94490234 -23 63 C-22.34 63 -21.68 63 -21 63 C-21 61.68 -21 60.36 -21 59 C-20.34 59 -19.68 59 -19 59 C-18.87625 58.2575 -18.7525 57.515 -18.625 56.75 C-18.03879534 54.17069951 -17.36715445 52.2517838 -16 50 C-15.01 49.505 -15.01 49.505 -14 49 C-12.82991705 46.8278309 -11.7427433 44.66437794 -10.6875 42.4375 C-4.30999443 29.30999443 -4.30999443 29.30999443 -1 26 C-0.67 17.42 -0.34 8.84 0 0 Z " fill="#FFFFFF" transform="translate(198,127)"/>
<path d="M0 0 C30.36 0 60.72 0 92 0 C92 51.48 92 102.96 92 156 C61.64 156 31.28 156 0 156 C0 104.52 0 53.04 0 0 Z " fill="#9EC4E7" transform="translate(176,213)"/>
<path d="M0 0 C17.16 0 34.32 0 52 0 C52 51.48 52 102.96 52 156 C34.84 156 17.68 156 0 156 C0 104.52 0 53.04 0 0 Z " fill="#9EC4E7" transform="translate(277,213)"/>
<path d="M0 0 C0.84732193 0.00359528 1.69464386 0.00719055 2.56764221 0.01089478 C3.89922363 0.01067574 3.89922363 0.01067574 5.25770569 0.01045227 C8.20666404 0.01115174 11.15556006 0.01894568 14.10450745 0.02676392 C16.14332037 0.02862798 18.18213374 0.03005194 20.22094727 0.03105164 C25.59844693 0.03487776 30.97591978 0.04470884 36.35340881 0.05575562 C41.83619321 0.06596771 47.31898192 0.07054882 52.80177307 0.07559204 C63.56806093 0.08633103 74.33432883 0.10340858 85.1006012 0.12442017 C83.62692728 4.71529589 81.79452892 8.84507719 79.4756012 13.06192017 C78.75670149 14.38866197 78.03795595 15.71548733 77.3193512 17.04238892 C76.95196838 17.717052 76.58458557 18.39171509 76.20606995 19.08682251 C74.44197718 22.33839456 72.71039593 25.60715272 70.9756012 28.87442017 C67.72636439 34.98242755 64.41419473 41.04949868 61.1006012 47.12442017 C30.7406012 47.12442017 0.3806012 47.12442017 -30.8993988 47.12442017 C-29.84928057 41.87382898 -29.06566781 41.08225643 -25.8993988 37.12442017 C-24.61201417 34.70517387 -23.43132626 32.24426849 -22.23924255 29.77676392 C-20.96703052 27.25830336 -19.57690786 24.89393337 -18.0868988 22.49942017 C-14.89021856 17.29649008 -12.20602203 11.87476341 -9.52708435 6.39346313 C-6.40078622 0.01147094 -6.40078622 0.01147094 0 0 Z " fill="#9EC4E7" transform="translate(209.89939880371094,155.87557983398438)"/>
<path d="M0 0 C20.46 0 40.92 0 62 0 C62 10.56 62 21.12 62 32 C41.54 32 21.08 32 0 32 C0 21.44 0 10.88 0 0 Z " fill="#9EC4E7" transform="translate(190,248)"/>
<path d="M0 0 C25.74 0 51.48 0 78 0 C78 15.84 78 31.68 78 48 C52.26 48 26.52 48 0 48 C0 32.16 0 16.32 0 0 Z M8 8 C8 18.56 8 29.12 8 40 C28.46 40 48.92 40 70 40 C70 29.44 70 18.88 70 8 C49.54 8 29.08 8 8 8 Z " fill="#FFFFFF" transform="translate(182,240)"/>
<path d="M0 0 C30.03 0 60.06 0 91 0 C91 4.29 91 8.58 91 13 C60.97 13 30.94 13 0 13 C0 8.71 0 4.42 0 0 Z " fill="#9EC4E7" transform="translate(207,134)"/>
<path d="M0 0 C0.66 0 1.32 0 2 0 C2.4846875 0.93199219 2.969375 1.86398438 3.46875 2.82421875 C7.42616315 10.37221178 11.58535471 17.6845599 16.1015625 24.9140625 C24 37.75308642 24 37.75308642 24 42 C8.82 42 -6.36 42 -22 42 C-20.98372564 37.93490256 -19.36603428 34.69610277 -17.375 31.0625 C-17.01962158 30.40515869 -16.66424316 29.74781738 -16.2980957 29.07055664 C-15.20243335 27.04500533 -14.10125639 25.02251398 -13 23 C-11.72663467 20.64718907 -10.45698589 18.29240985 -9.1875 15.9375 C-8.64480469 14.93589844 -8.10210937 13.93429688 -7.54296875 12.90234375 C-6.4656539 10.87590088 -5.41981252 8.83254959 -4.3984375 6.77734375 C-3.1230248 4.24433137 -1.87739864 2.12227673 0 0 Z " fill="#9EC4E7" transform="translate(302,161)"/>
<path d="M0 0 C0.71084244 -0.00189835 1.42168488 -0.00379669 2.15406799 -0.00575256 C4.50305213 -0.00945666 6.85172696 0.00123676 9.20068359 0.01245117 C10.83067793 0.01364308 12.46067297 0.01409611 14.09066772 0.01383972 C17.50531315 0.01540384 20.91985362 0.02368946 24.33447266 0.03710938 C28.72080107 0.05412605 33.10701441 0.05792292 37.49337196 0.05716419 C40.85785021 0.05743549 44.22230309 0.0629097 47.58677292 0.07016563 C49.20477481 0.07335677 50.82277959 0.07532074 52.44078445 0.07605934 C54.69625041 0.0782167 56.95159185 0.08694687 59.20703125 0.09765625 C61.13538315 0.10337395 61.13538315 0.10337395 63.10269165 0.10920715 C65.97412109 0.24291992 65.97412109 0.24291992 66.97412109 1.24291992 C67.22412109 3.68041992 67.22412109 3.68041992 66.97412109 6.24291992 C63.25906244 8.71962569 61.38459181 8.49075134 56.94824219 8.48583984 C56.23739975 8.48773819 55.52655731 8.48963654 54.79417419 8.49159241 C52.44519006 8.49529651 50.09651523 8.48460309 47.74755859 8.47338867 C46.11756425 8.47219676 44.48756922 8.47174373 42.85757446 8.47200012 C39.44292904 8.470436 36.02838856 8.46215039 32.61376953 8.44873047 C28.22744112 8.43171379 23.84122778 8.42791692 19.45487022 8.42867565 C16.09039198 8.42840436 12.7259391 8.42293014 9.36146927 8.41567421 C7.74346738 8.41248307 6.1254626 8.4105191 4.50745773 8.4097805 C2.25199178 8.40762315 -0.00334966 8.39889297 -2.25878906 8.38818359 C-3.54435699 8.3843718 -4.82992493 8.38056 -6.15444946 8.37663269 C-9.02587891 8.24291992 -9.02587891 8.24291992 -10.02587891 7.24291992 C-10.27587891 4.80541992 -10.27587891 4.80541992 -10.02587891 2.24291992 C-6.31082025 -0.23378585 -4.43634962 -0.0049115 0 0 Z " fill="#FFFFFF" transform="translate(192.02587890625,298.757080078125)"/>
<path d="M0 0 C0.93752106 -0.00307663 1.87504211 -0.00615326 2.8409729 -0.00932312 C4.35514297 0.00145515 4.35514297 0.00145515 5.89990234 0.01245117 C7.45479874 0.0131385 7.45479874 0.0131385 9.04110718 0.01383972 C11.23168076 0.01686096 13.42225221 0.02474342 15.61279297 0.03710938 C18.97940615 0.055385 22.34574471 0.05761893 25.71240234 0.05737305 C27.83740474 0.06228745 29.96240526 0.06811542 32.08740234 0.07495117 C33.60764511 0.07662041 33.60764511 0.07662041 35.15859985 0.07832336 C36.55542496 0.08789314 36.55542496 0.08789314 37.98046875 0.09765625 C38.80414948 0.10146805 39.6278302 0.10527985 40.47647095 0.10920715 C42.36083984 0.24291992 42.36083984 0.24291992 43.36083984 1.24291992 C43.61083984 3.68041992 43.61083984 3.68041992 43.36083984 6.24291992 C40.16928511 8.37062308 39.37935852 8.49215565 35.72167969 8.48583984 C34.78415863 8.48891647 33.84663757 8.4919931 32.88070679 8.49516296 C31.36653671 8.48438469 31.36653671 8.48438469 29.82177734 8.47338867 C28.26688095 8.47270134 28.26688095 8.47270134 26.68057251 8.47200012 C24.48999893 8.46897888 22.29942748 8.46109642 20.10888672 8.44873047 C16.74227354 8.43045485 13.37593498 8.42822091 10.00927734 8.4284668 C7.88427495 8.4235524 5.75927443 8.41772442 3.63427734 8.41088867 C2.11403458 8.40921944 2.11403458 8.40921944 0.56307983 8.40751648 C-0.3681369 8.40113663 -1.29935364 8.39475677 -2.25878906 8.38818359 C-3.08246979 8.3843718 -3.90615051 8.38056 -4.75479126 8.37663269 C-6.63916016 8.24291992 -6.63916016 8.24291992 -7.63916016 7.24291992 C-7.88916016 4.80541992 -7.88916016 4.80541992 -7.63916016 2.24291992 C-4.44760542 0.11521677 -3.65767884 -0.00631581 0 0 Z " fill="#FFFFFF" transform="translate(215.63916015625,313.757080078125)"/>
</svg>
