<?xml version="1.0" encoding="UTF-8"?>
<svg version="1.1" xmlns="http://www.w3.org/2000/svg" width="512" height="512">
<path d="M0 0 C0 0.66 0 1.32 0 2 C0.70125 2.04898437 1.4025 2.09796875 2.125 2.1484375 C7.96734159 2.60883942 13.36093962 3.40403951 19 5 C19 5.66 19 6.32 19 7 C21.64 7 24.28 7 27 7 C27 7.99 27 8.98 27 10 C28.27875 10.144375 29.5575 10.28875 30.875 10.4375 C33.25692894 10.70642746 34.84452691 10.92226346 37 12 C37 12.66 37 13.32 37 14 C37.66386719 14.12117188 38.32773437 14.24234375 39.01171875 14.3671875 C43.53424459 15.22547708 47.79938524 16.03971311 52 18 C52 18.66 52 19.32 52 20 C52.825 20.103125 53.65 20.20625 54.5 20.3125 C60.85644268 21.56108695 65.58669357 23.09632619 70 28 C70.99 28.33 71.98 28.66 73 29 C73.33 29.66 73.66 30.32 74 31 C75.64034193 31.72904086 77.31301918 32.38655243 79 33 C83.88888889 34.77777778 83.88888889 34.77777778 85 37 C87.07979206 38.05441056 87.07979206 38.05441056 89.5 39 C93.88888889 40.77777778 93.88888889 40.77777778 95 43 C95.845625 43.495 96.69125 43.99 97.5625 44.5 C98.7690625 45.2425 98.7690625 45.2425 100 46 C100 46.66 100 47.32 100 48 C100.99 48.33 101.98 48.66 103 49 C103 49.66 103 50.32 103 51 C103.639375 51.12375 104.27875 51.2475 104.9375 51.375 C105.618125 51.58125 106.29875 51.7875 107 52 C107.33 52.66 107.66 53.32 108 54 C109.134375 54.5775 110.26875 55.155 111.4375 55.75 C114.5170501 57.40870077 114.89135626 57.70837732 116.1875 61.1875 C116.5896875 62.5796875 116.5896875 62.5796875 117 64 C119.00572641 64.81446109 119.00572641 64.81446109 121 65 C121.33 65.66 121.66 66.32 122 67 C122.7425 67.433125 123.485 67.86625 124.25 68.3125 C127.3122614 70.19161495 129.50184339 72.43432564 132 75 C132.66 75.33 133.32 75.66 134 76 C134.4640625 76.9590625 134.4640625 76.9590625 134.9375 77.9375 C135.95345922 80.31971493 135.95345922 80.31971493 139 82 C139.6875 84.625 139.6875 84.625 140 87 C140.99 87.33 141.98 87.66 143 88 C143.33 88.99 143.66 89.98 144 91 C144.99 91.33 145.98 91.66 147 92 C147.70710678 93.64991582 148.36562656 95.3207762 149 97 C151.34767906 101.17810174 151.34767906 101.17810174 155 104 C155.66666667 105.33333333 156.33333333 106.66666667 157 108 C157.53625 108.53625 158.0725 109.0725 158.625 109.625 C159.07875 110.07875 159.5325 110.5325 160 111 C160 111.66 160 112.32 160 113 C160.66 113 161.32 113 162 113 C164.85376117 115.22118942 165.529068 117.19274553 166.1875 120.6875 C166.42533203 121.89986328 166.42533203 121.89986328 166.66796875 123.13671875 C166.77753906 123.75160156 166.88710938 124.36648437 167 125 C167.66 125 168.32 125 169 125 C172.37399268 131.16626248 174.34464282 137.17792193 176 144 C176.66 144 177.32 144 178 144 C178.66 146.31 179.32 148.62 180 151 C180.99 151 181.98 151 183 151 C183.66 154.96 184.32 158.92 185 163 C185.66 163 186.32 163 187 163 C187.50692692 164.5811292 188.00526443 166.16501383 188.5 167.75 C188.91765625 169.07257813 188.91765625 169.07257813 189.34375 170.421875 C190 173 190 173 190 177 C190.66 177 191.32 177 192 177 C192.50904657 178.87256417 193.00682455 180.74819341 193.5 182.625 C193.7784375 183.66914063 194.056875 184.71328125 194.34375 185.7890625 C194.99118596 188.95687418 195.1161292 191.77741467 195 195 C195.99 195 196.98 195 198 195 C199.91958262 203.39817396 200.22588024 211.40400201 200 220 C200.99 220 201.98 220 203 220 C203 242.77 203 265.54 203 289 C202.01 289 201.02 289 200 289 C200.02320313 289.88300781 200.04640625 290.76601563 200.0703125 291.67578125 C200.18613553 299.37801243 199.71726621 306.48696035 198 314 C197.01 314 196.02 314 195 314 C194.95101563 314.71285156 194.90203125 315.42570312 194.8515625 316.16015625 C194.41871477 321.70508491 193.75971184 326.72086449 192 332 C191.34 332 190.68 332 190 332 C189.87625 332.99 189.7525 333.98 189.625 335 C189.04805273 339.08880024 188.05036346 343.00861887 187 347 C186.34 347 185.68 347 185 347 C184.34 350.63 183.68 354.26 183 358 C182.01 358 181.02 358 180 358 C179.34 360.64 178.68 363.28 178 366 C177.34 366 176.68 366 176 366 C175.89816406 366.52078125 175.79632813 367.0415625 175.69140625 367.578125 C174.76928774 370.80814463 173.36563417 373.71141666 171.9375 376.75 C171.11572266 378.50570312 171.11572266 378.50570312 170.27734375 380.296875 C169.64505859 381.63492188 169.64505859 381.63492188 169 383 C168.34 383 167.68 383 167 383 C166.87044922 384.01320313 166.87044922 384.01320313 166.73828125 385.046875 C165.5711206 392.45673894 165.5711206 392.45673894 162.4375 395.4375 C161.633125 395.953125 160.82875 396.46875 160 397 C159.67 397.99 159.34 398.98 159 400 C158.01 400.66 157.02 401.32 156 402 C155.67 402.99 155.34 403.98 155 405 C154.01 405.66 153.02 406.32 152 407 C150.66895485 409.11223305 150.66895485 409.11223305 149.5 411.5 C147.83265031 414.79194683 147.16902479 415.8873168 144 418 C143.31867549 419.66072849 142.65257873 421.327767 142 423 C141.01979625 424.0194119 140.02196992 425.02246356 139 426 C138.67 426.99 138.34 427.98 138 429 C137.01 429.33 136.02 429.66 135 430 C134.67 430.99 134.34 431.98 134 433 C132.00669158 434.34331654 130.00615134 435.67594012 128 437 C126.98758315 438.32392972 125.98560611 439.65599167 125 441 C123.68252676 441.69748583 122.35085807 442.36959957 121 443 C120.67 443.66 120.34 444.32 120 445 C119.01 445 118.02 445 117 445 C116.34 446.65 115.68 448.3 115 450 C114.34 450 113.68 450 113 450 C112.7525 450.639375 112.505 451.27875 112.25 451.9375 C110.67012061 454.544301 109.83219689 454.29195078 107 455 C106.69835937 455.60585938 106.39671875 456.21171875 106.0859375 456.8359375 C104.88696577 459.22525526 103.66638489 460.4223602 101.625 462.125 C100.74714844 462.87136719 100.74714844 462.87136719 99.8515625 463.6328125 C96.8133589 465.87621178 94.82244029 467 91 467 C90.67 467.99 90.34 468.98 90 470 C88.35 470 86.7 470 85 470 C84.855625 470.763125 84.71125 471.52625 84.5625 472.3125 C82.69617977 475.52257079 81.87337345 475.62946913 78.4375 476.6875 C77.63183594 476.89761719 76.82617188 477.10773438 75.99609375 477.32421875 C73.80407832 477.80535737 73.80407832 477.80535737 73 480 C66.64705882 484 66.64705882 484 63 484 C63 484.66 63 485.32 63 486 C61.39850114 486.67305018 59.79368971 487.33822227 58.1875 488 C57.29417969 488.37125 56.40085937 488.7425 55.48046875 489.125 C53 490 53 490 50 490 C50 490.66 50 491.32 50 492 C47.87607494 492.6700834 45.75082476 493.33596797 43.625 494 C42.44164062 494.37125 41.25828125 494.7425 40.0390625 495.125 C37 496 37 496 35 496 C35 496.66 35 497.32 35 498 C33.27318563 498.50806447 31.54342021 499.00610467 29.8125 499.5 C28.84957031 499.7784375 27.88664062 500.056875 26.89453125 500.34375 C24.14654124 500.96677608 21.80401584 501.12302812 19 501 C19 501.66 19 502.32 19 503 C3.03726068 506.90704842 -11.96400664 508.7577171 -28.375 508.6640625 C-30.52523063 508.6674483 -32.67545936 508.67231535 -34.82568359 508.67855835 C-39.28957695 508.6858469 -43.75296341 508.67548753 -48.21679688 508.65185547 C-53.86400746 508.62337325 -59.5100288 508.63982101 -65.15719604 508.66971779 C-69.58464092 508.68801058 -74.01181585 508.68193357 -78.43927002 508.66907883 C-80.51833242 508.66580509 -82.59742151 508.66961194 -84.67645264 508.68147659 C-99.995785 508.74977241 -114.12277105 506.64135833 -129 503 C-129 502.34 -129 501.68 -129 501 C-130.155 500.87625 -131.31 500.7525 -132.5 500.625 C-136.78350375 500.09721115 -140.83352672 499.11601963 -145 498 C-145 497.34 -145 496.68 -145 496 C-146.24716797 495.69255859 -146.24716797 495.69255859 -147.51953125 495.37890625 C-149.14955078 494.97478516 -149.14955078 494.97478516 -150.8125 494.5625 C-151.89144531 494.29566406 -152.97039062 494.02882813 -154.08203125 493.75390625 C-156.0740843 493.23922588 -158.04811524 492.65062825 -160 492 C-160.33 491.34 -160.66 490.68 -161 490 C-163.34038186 488.86897474 -163.34038186 488.86897474 -166.0625 487.875 C-166.98160156 487.52179688 -167.90070313 487.16859375 -168.84765625 486.8046875 C-169.55792969 486.53914063 -170.26820313 486.27359375 -171 486 C-171 485.34 -171 484.68 -171 484 C-171.845625 483.896875 -172.69125 483.79375 -173.5625 483.6875 C-177.46055473 482.90788905 -180.43403179 481.74802363 -184 480 C-184.33 479.34 -184.66 478.68 -185 478 C-187.30965848 476.94647157 -189.6429774 475.94280904 -192 475 C-192 474.34 -192 473.68 -192 473 C-193.32 472.67 -194.64 472.34 -196 472 C-196 471.34 -196 470.68 -196 470 C-197.32 469.67 -198.64 469.34 -200 469 C-200 468.34 -200 467.68 -200 467 C-200.9075 466.71125 -201.815 466.4225 -202.75 466.125 C-208.08 464.28 -208.08 464.28 -210 463 C-210.75 460.875 -210.75 460.875 -211 459 C-211.639375 458.896875 -212.27875 458.79375 -212.9375 458.6875 C-213.9584375 458.3471875 -213.9584375 458.3471875 -215 458 C-215.495 456.515 -215.495 456.515 -216 455 C-216.721875 454.938125 -217.44375 454.87625 -218.1875 454.8125 C-221.88399074 453.7446249 -223.53138868 451.89180184 -226 449 C-226 448.34 -226 447.68 -226 447 C-226.66 447 -227.32 447 -228 447 C-228 446.34 -228 445.68 -228 445 C-228.66 445 -229.32 445 -230 445 C-230 444.34 -230 443.68 -230 443 C-230.99 442.67 -231.98 442.34 -233 442 C-234.38509525 440.37609523 -235.70758949 438.69859667 -237 437 C-238.03224097 435.74220509 -239.07430838 434.49242367 -240.125 433.25 C-240.87136719 432.36054687 -240.87136719 432.36054687 -241.6328125 431.453125 C-242.9579498 429.87728556 -242.9579498 429.87728556 -245 429 C-245.309375 428.360625 -245.61875 427.72125 -245.9375 427.0625 C-246.95345922 424.68028507 -246.95345922 424.68028507 -250 423 C-250.495 421.515 -250.495 421.515 -251 420 C-252.99371825 418.65729179 -254.9934562 417.32346506 -257 416 C-257 415.34 -257 414.68 -257 414 C-257.66 414 -258.32 414 -259 414 C-260.4606285 411.35261084 -261 410.10551666 -261 407 C-261.90492188 406.64421875 -261.90492188 406.64421875 -262.828125 406.28125 C-265.50191836 404.70390428 -266.31498302 403.22830389 -267.75 400.5 C-268.39195312 399.30890625 -268.39195312 399.30890625 -269.046875 398.09375 C-270 396 -270 396 -270 394 C-270.99 393.67 -271.98 393.34 -273 393 C-273.33 391.35 -273.66 389.7 -274 388 C-274.99 388 -275.98 388 -277 388 C-277.66 385.03 -278.32 382.06 -279 379 C-279.66 379 -280.32 379 -281 379 C-281.99 376.03 -282.98 373.06 -284 370 C-284.66 370 -285.32 370 -286 370 C-289 363.375 -289 363.375 -289 360 C-289.99 360 -290.98 360 -292 360 C-293.80230168 356.17010894 -294.19622241 353.21878192 -294 349 C-294.99 349 -295.98 349 -297 349 C-297.50512244 347.39743892 -298.00391627 345.79288208 -298.5 344.1875 C-298.91765625 342.84751953 -298.91765625 342.84751953 -299.34375 341.48046875 C-300 339 -300 339 -300 336 C-300.66 336 -301.32 336 -302 336 C-302.33 332.37 -302.66 328.74 -303 325 C-303.66 325 -304.32 325 -305 325 C-308.23832013 310.00709363 -309.60295084 295.72360702 -309.53125 280.40625 C-309.53395764 278.31563132 -309.53785048 276.22501388 -309.54284668 274.13439941 C-309.54868209 269.79146113 -309.54037422 265.448856 -309.52148438 261.10595703 C-309.49869883 255.60660509 -309.51185441 250.1080347 -309.53577423 244.60871124 C-309.55039539 240.30318571 -309.54555253 235.99783813 -309.53526306 231.69230652 C-309.53264054 229.66741335 -309.53570281 227.64250269 -309.54518127 225.61763 C-309.59737913 211.34253021 -308.01442241 197.95629563 -305 184 C-304.34 184 -303.68 184 -303 184 C-302.67 180.37 -302.34 176.74 -302 173 C-301.34 173 -300.68 173 -300 173 C-299.87625 171.96875 -299.7525 170.9375 -299.625 169.875 C-299.06110186 166.37883154 -298.21317941 163.31602373 -297 160 C-296.01 160 -295.02 160 -294 160 C-293.93941406 159.37351563 -293.87882812 158.74703125 -293.81640625 158.1015625 C-293.73261719 157.28429687 -293.64882813 156.46703125 -293.5625 155.625 C-293.48128906 154.81289062 -293.40007812 154.00078125 -293.31640625 153.1640625 C-293 151 -293 151 -292 149 C-291.01 149 -290.02 149 -289 149 C-288.87625 148.278125 -288.7525 147.55625 -288.625 146.8125 C-288.0095069 144.04278106 -287.11555626 141.6029646 -286 139 C-285.34 139 -284.68 139 -284 139 C-283.690625 137.741875 -283.38125 136.48375 -283.0625 135.1875 C-281.38605898 128.36997319 -281.38605898 128.36997319 -279.5 126.5625 C-277.75814029 124.74806281 -277.42144987 123.44440923 -277 121 C-276.01 121 -275.02 121 -274 121 C-273.34 119.02 -272.68 117.04 -272 115 C-271.34 115 -270.68 115 -270 115 C-269.773125 114.154375 -269.54625 113.30875 -269.3125 112.4375 C-267.80761382 108.49613144 -265.87296745 105.11238141 -263 102 C-262.34 102 -261.68 102 -261 102 C-260.67 100.35 -260.34 98.7 -260 97 C-259.01 96.67 -258.02 96.34 -257 96 C-257 94.68 -257 93.36 -257 92 C-256.05125 91.7525 -255.1025 91.505 -254.125 91.25 C-250.91306809 90.3142923 -250.91306809 90.3142923 -249.625 87.875 C-249.41875 87.25625 -249.2125 86.6375 -249 86 C-248.34 86 -247.68 86 -247 86 C-246.773125 85.29875 -246.54625 84.5975 -246.3125 83.875 C-244.15057159 79.1393473 -240.64105713 75.64105713 -237 72 C-234.21788481 68.68606275 -234.21788481 68.68606275 -232 65 C-231.01 64.67 -230.02 64.34 -229 64 C-228.67 63.34 -228.34 62.68 -228 62 C-227.34 62 -226.68 62 -226 62 C-225.773125 61.236875 -225.54625 60.47375 -225.3125 59.6875 C-223.71052866 56.40727297 -222.27374 55.51709902 -219 54 C-218.01 54 -217.02 54 -216 54 C-215.67 53.01 -215.34 52.02 -215 51 C-213.68 51 -212.36 51 -211 51 C-211 50.01 -211 49.02 -211 48 C-210.34 48 -209.68 48 -209 48 C-209 47.34 -209 46.68 -209 46 C-204.61538462 43 -204.61538462 43 -202 43 C-202 42.34 -202 41.68 -202 41 C-196.58823529 37 -196.58823529 37 -194 37 C-194 36.34 -194 35.68 -194 35 C-192.5437455 34.32880451 -191.08492133 33.66318193 -189.625 33 C-188.81289062 32.62875 -188.00078125 32.2575 -187.1640625 31.875 C-185 31 -185 31 -183 31 C-182.67 30.01 -182.34 29.02 -182 28 C-179.10441559 26.5522078 -177.25811062 26 -174 26 C-174 25.34 -174 24.68 -174 24 C-172.39850114 23.32694982 -170.79368971 22.66177773 -169.1875 22 C-168.29417969 21.62875 -167.40085938 21.2575 -166.48046875 20.875 C-164 20 -164 20 -161 20 C-160.67 19.01 -160.34 18.02 -160 17 C-158.07421875 16.05078125 -158.07421875 16.05078125 -155.6875 15.3125 C-154.90761719 15.06113281 -154.12773437 14.80976563 -153.32421875 14.55078125 C-151 14 -151 14 -147 14 C-147 13.34 -147 12.68 -147 12 C-141.555 11.01 -141.555 11.01 -136 10 C-136 9.01 -136 8.02 -136 7 C-133.69 7 -131.38 7 -129 7 C-129 6.34 -129 5.68 -129 5 C-126.77228658 4.49356447 -124.54275924 3.9951038 -122.3125 3.5 C-120.45044922 3.08234375 -120.45044922 3.08234375 -118.55078125 2.65625 C-115.57601782 2.10645874 -113.00631398 1.86204295 -110 2 C-110 1.34 -110 0.68 -110 0 C-74.49092819 -6.59736183 -35.47433491 -7.23130673 0 0 Z " fill="#9EC4E7" transform="translate(309,4)"/>
<path d="M0 0 C57.42 0 114.84 0 174 0 C174 10.89 174 21.78 174 33 C174.66 33 175.32 33 176 33 C176 34.32 176 35.64 176 37 C176.66 37 177.32 37 178 37 C178.99 41.95 178.99 41.95 180 47 C180.66 47 181.32 47 182 47 C182.66 49.31 183.32 51.62 184 54 C184.66 54 185.32 54 186 54 C186 54.99 186 55.98 186 57 C187.32 57.33 188.64 57.66 190 58 C190.33 59.98 190.66 61.96 191 64 C191.66 64 192.32 64 193 64 C193 64.66 193 65.32 193 66 C194.32 66 195.64 66 197 66 C197.99 69.96 197.99 69.96 199 74 C199.99 74 200.98 74 202 74 C203.60725635 77.21451269 203.05748185 80.43612536 203 84 C203.66 84 204.32 84 205 84 C205.33 85.65 205.66 87.3 206 89 C206.66 89 207.32 89 208 89 C208.66 90.98 209.32 92.96 210 95 C210.99 95 211.98 95 213 95 C213.33 96.98 213.66 98.96 214 101 C214.99 101.33 215.98 101.66 217 102 C217 103.65 217 105.3 217 107 C217.99 107 218.98 107 220 107 C220 108.65 220 110.3 220 112 C220.99 112 221.98 112 223 112 C224.9614499 117.7448837 225.28372676 122.83723844 225.25396729 128.88150024 C225.25708727 129.8599224 225.26020725 130.83834456 225.26342177 131.84641588 C225.27138162 135.11593408 225.26508595 138.38526566 225.25878906 141.65478516 C225.26149978 144.00235604 225.26506116 146.34992608 225.26940918 148.69749451 C225.27852481 155.0670685 225.27499255 161.43657769 225.26865101 167.80615282 C225.26410119 173.79473867 225.26757385 179.78331859 225.2705054 185.77190427 C225.27620417 198.35301236 225.26965745 210.93409128 225.25890467 223.51519458 C225.24996541 234.30864692 225.25152515 245.10205625 225.26074219 255.89550781 C225.27144567 268.43547027 225.27565926 280.9754072 225.26951766 293.51537359 C225.26635578 300.15141782 225.26599037 306.78743806 225.27259064 313.42348099 C225.27836025 319.65987415 225.27437419 325.89618591 225.26280212 332.13257027 C225.26015372 334.42353111 225.26092369 336.71449878 225.26532745 339.00545692 C225.27077698 342.12788667 225.26395585 345.25005409 225.25396729 348.37246704 C225.25842873 349.28306464 225.26289017 350.19366224 225.26748681 351.1318537 C225.24008595 355.53538125 225.0756418 358.99630185 223 363 C188.39988543 363.06861906 153.79978635 363.12150483 119.19961847 363.15319599 C115.11769801 363.15694825 111.03577768 363.1608312 106.95385742 363.16479492 C105.73486699 363.16597532 105.73486699 363.16597532 104.49125049 363.16717956 C91.320942 363.18024479 78.15067266 363.20390476 64.98038741 363.23145839 C51.47333715 363.25948156 37.96630743 363.27616971 24.45922929 363.28226548 C16.12003445 363.28638836 7.78095027 363.29942482 -0.55821051 363.3237494 C-6.27137909 363.3395685 -11.98449018 363.34440908 -17.69767908 363.34050413 C-20.9972968 363.33857658 -24.29667895 363.34322019 -27.59627151 363.35761642 C-31.168693 363.37244458 -34.74063298 363.36898883 -38.31306458 363.36076355 C-39.36266399 363.36950207 -40.4122634 363.3782406 -41.49366885 363.38724393 C-42.4471256 363.38127078 -43.40058234 363.37529764 -44.38293171 363.36914349 C-45.62063013 363.37085223 -45.62063013 363.37085223 -46.88333255 363.37259549 C-49.55784685 362.90180261 -50.43328736 362.20033055 -52 360 C-52.37374616 358.09016013 -52.37374616 358.09016013 -52.3719368 355.88662338 C-52.37852664 355.0454688 -52.38511649 354.20431421 -52.39190602 353.33767009 C-52.38384962 352.41346491 -52.37579321 351.48925973 -52.36749268 350.53704834 C-52.37076152 349.55528791 -52.37403036 348.57352747 -52.37739825 347.56201673 C-52.38470798 344.25700983 -52.37049371 340.95244109 -52.35644531 337.64746094 C-52.35723579 335.28402124 -52.35933184 332.92058168 -52.36264038 330.55714417 C-52.36725189 324.79395603 -52.35794657 319.03091119 -52.34235242 313.26774493 C-52.32482498 306.55552072 -52.32339337 299.84332239 -52.32273683 293.13107887 C-52.32104778 281.15132205 -52.30522325 269.17162573 -52.28125 257.19189453 C-52.25801197 245.5711212 -52.24382825 233.95038622 -52.24023438 222.32958984 C-52.24001161 221.6144699 -52.23978884 220.89934996 -52.23955932 220.16255972 C-52.23911672 218.72190478 -52.23867469 217.28124984 -52.23823325 215.8405949 C-52.23801369 215.12990112 -52.23779412 214.41920734 -52.2375679 213.68697739 C-52.23735192 212.97806334 -52.23713593 212.2691493 -52.2369134 211.53875302 C-52.23320844 200.46257008 -52.2218471 189.38639332 -52.2094375 178.31021719 C-52.20574439 174.96543639 -52.20249332 171.6206562 -52.20018864 168.27587414 C-52.19491088 160.64377202 -52.18534125 153.01170627 -52.16798782 145.37962151 C-52.16347051 143.06692967 -52.1606275 140.75423387 -52.15958023 138.44153786 C-52.15783009 135.28462447 -52.14993534 132.12778449 -52.14044189 128.97088623 C-52.14130838 128.05560394 -52.14217486 127.14032165 -52.1430676 126.19730353 C-52.12124432 121.35906077 -51.81467652 116.77111281 -51 112 C-50.34 112 -49.68 112 -49 112 C-49 110.35 -49 108.7 -49 107 C-47.02 106.505 -47.02 106.505 -45 106 C-44.855625 104.906875 -44.71125 103.81375 -44.5625 102.6875 C-44 99 -44 99 -43 96 C-42.34 96 -41.68 96 -41 96 C-40.67 94.35 -40.34 92.7 -40 91 C-38.68 91 -37.36 91 -36 91 C-36 89.02 -36 87.04 -36 85 C-34.68 85 -33.36 85 -32 85 C-32.061875 84.071875 -32.12375 83.14375 -32.1875 82.1875 C-32 79 -32 79 -30.6875 77.125 C-29 76 -29 76 -26 76 C-26 74.68 -26 73.36 -26 72 C-24.02 71.505 -24.02 71.505 -22 71 C-22 69.35 -22 67.7 -22 66 C-20.515 65.505 -20.515 65.505 -19 65 C-18.505 60.05 -18.505 60.05 -18 55 C-17.01 54.67 -16.02 54.34 -15 54 C-13.78130071 51.49552484 -13.78130071 51.49552484 -13 49 C-11.68 49 -10.36 49 -9 49 C-9 48.34 -9 47.68 -9 47 C-8.34 47 -7.68 47 -7 47 C-7.04125 46.278125 -7.0825 45.55625 -7.125 44.8125 C-6.99078695 41.79270631 -6.24829381 39.73064271 -5 37 C-3.35 37 -1.7 37 0 37 C0 24.79 0 12.58 0 0 Z " fill="#FFFFFF" transform="translate(169,68)"/>
<path d="M0 0 C49.5 0 99 0 150 0 C150 74.25 150 148.5 150 225 C100.5 225 51 225 0 225 C0 150.75 0 76.5 0 0 Z " fill="#9EC4E7" transform="translate(131,193)"/>
<path d="M0 0 C27.39 0 54.78 0 83 0 C83 74.25 83 148.5 83 225 C55.61 225 28.22 225 0 225 C0 150.75 0 76.5 0 0 Z " fill="#9EC4E7" transform="translate(295,193)"/>
<path d="M0 0 C48.51 0 97.02 0 147 0 C147 0.99 147 1.98 147 3 C146.34 3 145.68 3 145 3 C144.67 4.98 144.34 6.96 144 9 C143.01 9 142.02 9 141 9 C140.67 10.98 140.34 12.96 140 15 C139.34 15 138.68 15 138 15 C137.87882813 15.56589844 137.75765625 16.13179687 137.6328125 16.71484375 C137.38144531 17.81505859 137.38144531 17.81505859 137.125 18.9375 C136.88136719 20.03384766 136.88136719 20.03384766 136.6328125 21.15234375 C136 23 136 23 134 24 C133.27306096 25.97888961 132.60183749 27.97954558 132 30 C131.01 30 130.02 30 129 30 C128.67 32.97 128.34 35.94 128 39 C125.525 39.495 125.525 39.495 123 40 C122.01 44.95 122.01 44.95 121 50 C120.01 50.33 119.02 50.66 118 51 C117.67 51.66 117.34 52.32 117 53 C116.34 53 115.68 53 115 53 C114.67 54.98 114.34 56.96 114 59 C113.01 59 112.02 59 111 59 C111 60.32 111 61.64 111 63 C110.01 63.33 109.02 63.66 108 64 C107.67 65.65 107.34 67.3 107 69 C58.49 69 9.98 69 -40 69 C-40 67.35 -40 65.7 -40 64 C-39.34 64 -38.68 64 -38 64 C-37.67 62.35 -37.34 60.7 -37 59 C-36.01 59 -35.02 59 -34 59 C-33.34 57.02 -32.68 55.04 -32 53 C-31.34 53 -30.68 53 -30 53 C-29.67 50.69 -29.34 48.38 -29 46 C-28.34 46 -27.68 46 -27 46 C-27 44.02 -27 42.04 -27 40 C-25.02 39.505 -25.02 39.505 -23 39 C-22.34 36.03 -21.68 33.06 -21 30 C-19.02 29.67 -17.04 29.34 -15 29 C-14.34 26.03 -13.68 23.06 -13 20 C-12.01 20 -11.02 20 -10 20 C-10 19.01 -10 18.02 -10 17 C-9.34 17 -8.68 17 -8 17 C-7.34 14.69 -6.68 12.38 -6 10 C-5.34 10 -4.68 10 -4 10 C-3.855625 9.236875 -3.71125 8.47375 -3.5625 7.6875 C-3 5 -3 5 -2 2 C-1.34 2 -0.68 2 0 2 C0 1.34 0 0.68 0 0 Z " fill="#9EC4E7" transform="translate(177,110)"/>
<path d="M0 0 C41.25 0 82.5 0 125 0 C125 23.1 125 46.2 125 70 C83.75 70 42.5 70 0 70 C0 46.9 0 23.8 0 0 Z " fill="#FFFFFF" transform="translate(143,231)"/>
<path d="M0 0 C1.98 0 3.96 0 6 0 C6.66 2.97 7.32 5.94 8 9 C9.32 9.33 10.64 9.66 12 10 C12 11.65 12 13.3 12 15 C12.66 15 13.32 15 14 15 C15.4606285 17.64738916 16 18.89448334 16 22 C16.99 22.33 17.98 22.66 19 23 C19.495 25.97 19.495 25.97 20 29 C20.66 29 21.32 29 22 29 C22 29.99 22 30.98 22 32 C23.32 32.33 24.64 32.66 26 33 C26.495 34.98 26.495 34.98 27 37 C27.66 37 28.32 37 29 37 C29 37.99 29 38.98 29 40 C30.32 40 31.64 40 33 40 C34.4606285 42.64738916 35 43.89448334 35 47 C35.99 47 36.98 47 38 47 C39.1577506 50.47325181 39.06866652 53.36067448 39 57 C39.66 57 40.32 57 41 57 C41 58.65 41 60.3 41 62 C16.58 62 -7.84 62 -33 62 C-33 60.35 -33 58.7 -33 57 C-30.525 56.505 -30.525 56.505 -28 56 C-27.67 52.7 -27.34 49.4 -27 46 C-26.01 46 -25.02 46 -24 46 C-23.505 43.03 -23.505 43.03 -23 40 C-21.515 39.505 -21.515 39.505 -20 39 C-19.505 36.03 -19.505 36.03 -19 33 C-17.515 32.505 -17.515 32.505 -16 32 C-15.67 29.69 -15.34 27.38 -15 25 C-14.01 25 -13.02 25 -12 25 C-11.67 23.02 -11.34 21.04 -11 19 C-10.34 19 -9.68 19 -9 19 C-8.34 17.02 -7.68 15.04 -7 13 C-6.34 13 -5.68 13 -5 13 C-5 10.69 -5 8.38 -5 6 C-3.68 5.67 -2.36 5.34 -1 5 C-0.67 3.35 -0.34 1.7 0 0 Z " fill="#9EC4E7" transform="translate(333,117)"/>
<path d="M0 0 C0.99692368 -0.00419449 1.99384735 -0.00838898 3.02098083 -0.01271057 C4.10841583 -0.00709106 5.19585083 -0.00147156 6.3162384 0.00431824 C7.46613754 0.00241989 8.61603668 0.00052155 9.80078125 -0.00143433 C13.60523779 -0.00514206 17.40950388 0.0055606 21.21394348 0.01676941 C23.85141986 0.01796111 26.48889666 0.01841439 29.12637329 0.01815796 C34.65355303 0.01909392 40.18067779 0.02777073 45.70783997 0.04142761 C52.10515288 0.05717572 58.50240569 0.06242488 64.89973658 0.06169206 C71.04962543 0.06108265 77.19949144 0.06628665 83.34937477 0.07448387 C85.96937758 0.07767661 88.58938217 0.07963935 91.20938683 0.08037758 C94.86092062 0.08253333 98.51237729 0.0912602 102.16389465 0.10197449 C103.25740234 0.1015213 104.35091003 0.10106812 105.47755432 0.1006012 C106.96025063 0.10699867 106.96025063 0.10699867 108.47290039 0.11352539 C109.3369559 0.11520123 110.20101141 0.11687708 111.09125042 0.11860371 C113.04597473 0.24723816 113.04597473 0.24723816 114.04597473 1.24723816 C114.28126885 8.54135581 114.28126885 8.54135581 113.04597473 12.24723816 C109.65337675 13.0103445 106.52237692 13.37267966 103.04762268 13.3742218 C102.06615265 13.37704163 101.08468262 13.37986145 100.07347107 13.38276672 C99.00833282 13.38074249 97.94319458 13.37871826 96.84577942 13.37663269 C95.71524139 13.37838501 94.58470337 13.38013733 93.41990662 13.38194275 C89.68587201 13.38634165 85.95188481 13.38343093 82.21784973 13.38005066 C79.62664277 13.38072407 77.03543587 13.38169441 74.44422913 13.38294983 C69.01720011 13.38442398 63.59018894 13.38237587 58.16316223 13.37760925 C51.88227907 13.37215652 45.60142831 13.3739384 39.32054591 13.37943566 C33.28011675 13.38451134 27.2397035 13.38398614 21.19927216 13.38105392 C18.62671657 13.38038466 16.05416016 13.38121305 13.48160553 13.38353348 C9.89724495 13.38605779 6.31294775 13.38222306 2.72859192 13.37663269 C1.11873917 13.37966904 1.11873917 13.37966904 -0.52363586 13.38276672 C-1.4938266 13.3799469 -2.46401733 13.37712708 -3.46360779 13.3742218 C-4.31161579 13.37384478 -5.15962379 13.37346775 -6.03332901 13.3730793 C-7.95402527 13.24723816 -7.95402527 13.24723816 -8.95402527 12.24723816 C-9.02608038 10.5611485 -9.03788594 8.87223157 -9.01652527 7.18473816 C-9.00750183 6.2656366 -8.99847839 5.34653503 -8.98918152 4.39958191 C-8.97757996 3.68930847 -8.96597839 2.97903503 -8.95402527 2.24723816 C-5.84015703 0.43358473 -3.58727904 -0.00225874 0 0 Z " fill="#FFFFFF" transform="translate(151.9540252685547,315.7527618408203)"/>
<path d="M0 0 C24.75 0 49.5 0 75 0 C76.49297212 2.98594424 76.11755228 5.70853624 76 9 C75.67 9.66 75.34 10.32 75 11 C70.98762329 12.16874322 67.04208697 12.12676202 62.88647461 12.12939453 C62.18991257 12.13114685 61.49335052 12.13289917 60.77568054 12.13470459 C58.48454257 12.13908818 56.19348244 12.13619777 53.90234375 12.1328125 C52.30481451 12.13348647 50.70728536 12.13445727 49.10975647 12.13571167 C45.76676453 12.13718384 42.42379937 12.13504923 39.08081055 12.13037109 C34.79797457 12.12466947 30.51520121 12.12795859 26.23236752 12.13394356 C22.93554717 12.13755818 19.63874165 12.13640651 16.34192085 12.13381577 C14.76268061 12.13314923 13.18343902 12.13396536 11.60420036 12.13629532 C9.39747426 12.13883711 7.19084943 12.1349599 4.98413086 12.12939453 C3.72902206 12.12859894 2.47391327 12.12780334 1.18077087 12.12698364 C-1.42289235 12.02303946 -3.53177969 11.7765626 -6 11 C-6 8.69 -6 6.38 -6 4 C-4.68 4 -3.36 4 -2 4 C-2 3.34 -2 2.68 -2 2 C-1.34 2 -0.68 2 0 2 C0 1.34 0 0.68 0 0 Z " fill="#FFFFFF" transform="translate(190,338)"/>
</svg>
