<svg xmlns="http://www.w3.org/2000/svg" width="512" height="512" viewBox="0 0 512 512" aria-hidden="true">
  <circle cx="256" cy="256" r="256" fill="#6570A8"/>

  <!-- 7 big petals, shifted further down, ultra-thin separators -->
  <g transform="translate(256 256)">
    <g transform="translate(0,128) scale(1.75)" fill="#FFFFFF">
      <path d="M0 -140 C 22 -140 32 -120 32 -96 C 32 -60 18 -28 8 -6 C 4 2 -4 2 -8 -6 C -18 -28 -32 -60 -32 -96 C -32 -120 -22 -140 0 -140 Z" transform="rotate(-36)"/>
      <path d="M0 -140 C 22 -140 32 -120 32 -96 C 32 -60 18 -28 8 -6 C 4 2 -4 2 -8 -6 C -18 -28 -32 -60 -32 -96 C -32 -120 -22 -140 0 -140 Z" transform="rotate(-24)"/>
      <path d="M0 -140 C 22 -140 32 -120 32 -96 C 32 -60 18 -28 8 -6 C 4 2 -4 2 -8 -6 C -18 -28 -32 -60 -32 -96 C -32 -120 -22 -140 0 -140 Z" transform="rotate(-12)"/>
      <path d="M0 -140 C 22 -140 32 -120 32 -96 C 32 -60 18 -28 8 -6 C 4 2 -4 2 -8 -6 C -18 -28 -32 -60 -32 -96 C -32 -120 -22 -140 0 -140 Z"/>
      <path d="M0 -140 C 22 -140 32 -120 32 -96 C 32 -60 18 -28 8 -6 C 4 2 -4 2 -8 -6 C -18 -28 -32 -60 -32 -96 C -32 -120 -22 -140 0 -140 Z" transform="rotate(12)"/>
      <path d="M0 -140 C 22 -140 32 -120 32 -96 C 32 -60 18 -28 8 -6 C 4 2 -4 2 -8 -6 C -18 -28 -32 -60 -32 -96 C -32 -120 -22 -140 0 -140 Z" transform="rotate(24)"/>
      <path d="M0 -140 C 22 -140 32 -120 32 -96 C 32 -60 18 -28 8 -6 C 4 2 -4 2 -8 -6 C -18 -28 -32 -60 -32 -96 C -32 -120 -22 -140 0 -140 Z" transform="rotate(36)"/>
    </g>

    <!-- Thinner separator lines -->
    <g transform="translate(0,128) scale(1.75)" stroke="#6570A8" stroke-width="3" stroke-linecap="round" fill="none">
      <line x1="0" y1="-128" x2="0" y2="-10" transform="rotate(-30)"/>
      <line x1="0" y1="-128" x2="0" y2="-10" transform="rotate(-18)"/>
      <line x1="0" y1="-128" x2="0" y2="-10" transform="rotate(-6)"/>
      <line x1="0" y1="-128" x2="0" y2="-10" transform="rotate(6)"/>
      <line x1="0" y1="-128" x2="0" y2="-10" transform="rotate(18)"/>
      <line x1="0" y1="-128" x2="0" y2="-10" transform="rotate(30)"/>
    </g>
  </g>

  <defs>
    <radialGradient id="v" cx="50%" cy="40%" r="70%">
      <stop offset="0%" stop-color="rgba(0,0,0,0)"/>
      <stop offset="100%" stop-color="rgba(0,0,0,0.12)"/>
    </radialGradient>
  </defs>
  <circle cx="256" cy="256" r="256" fill="url(#v)"/>
</svg>
