<svg xmlns="http://www.w3.org/2000/svg" width="512" height="512" viewBox="0 0 512 512" aria-hidden="true">
  <!-- Background -->
  <circle cx="256" cy="256" r="256" fill="#C49F7A"/>

  <!-- Almond (left) + Pine nuts cluster (right), centered composition -->
  <g transform="translate(256 256)" stroke="#FFFFFF" stroke-width="14" stroke-linecap="round" stroke-linejoin="round" fill="none">
    <!-- Almond (left) -->
    <g transform="translate(-105,-6) rotate(-15)">
      <path d="M0 -56
               C 26 -40 36 -14 36 0
               C 36 24 20 52 0 64
               C -20 52 -36 24 -36 0
               C -36 -14 -26 -40 0 -56 Z"/>
      <path d="M0 -44 C 10 -24 10 24 0 52"/>
      <path d="M-10 -30 C -6 -20 -6 20 -10 38"/>
      <path d="M10 -30 C 6 -18 6 22 10 38"/>
    </g>

    <!-- Pine nuts (right) -->
    <g transform="translate(58,0) rotate(20) scale(0.98)">
      <!-- Central nuts -->
      <path d="M-10 -30 Q 6 0 -10 30 Q -26 0 -10 -30 Z"/>
      <path d="M 26 -18 Q 42 10 26 38 Q 10 10 26 -18 Z"/>
      <!-- Upper small -->
      <g transform="translate(-36 -60) rotate(-12)">
        <path d="M0 -16 Q 10 0 0 16 Q -10 0 0 -16 Z"/>
      </g>
      <!-- Right small -->
      <g transform="translate(58 8) rotate(18)">
        <path d="M0 -16 Q 10 0 0 16 Q -10 0 0 -16 Z"/>
      </g>
      <!-- Lower left -->
      <g transform="translate(-54 32) rotate(-24)">
        <path d="M0 -20 Q 13 0 0 20 Q -13 0 0 -20 Z"/>
      </g>
      <!-- Lower right -->
      <g transform="translate(6 56) rotate(8)">
        <path d="M0 -18 Q 12 0 0 18 Q -12 0 0 -18 Z"/>
      </g>
    </g>
  </g>

  <!-- Subtle vignette -->
  <defs>
    <radialGradient id="v" cx="50%" cy="40%" r="70%">
      <stop offset="0%" stop-color="rgba(0,0,0,0)"/>
      <stop offset="100%" stop-color="rgba(0,0,0,0.12)"/>
    </radialGradient>
  </defs>
  <circle cx="256" cy="256" r="256" fill="url(#v)"/>
</svg>
