<svg xmlns="http://www.w3.org/2000/svg" width="512" height="512" viewBox="0 0 512 512" role="img" aria-hidden="true">
  <!-- Background circle -->
  <circle cx="256" cy="256" r="256" fill="#EF4946"/>

  <!-- Peanut (in shell), tilted 20° to the right, asymmetric outline -->
  <g transform="translate(256 256) rotate(20) scale(1.12)" stroke="#FFFFFF" stroke-width="16" stroke-linecap="round" stroke-linejoin="round" fill="none">
    <path d="M0 -112
             C 68 -112  88 -64   44 -28
             C 18   -6   28  22   52  42
             C 84   76   50 116    0 112
             C -72 108  -88  60  -48  30
             C -26   8  -24 -16  -50 -40
             C -86 -70  -54 -116   0 -112 Z"/>
  </g>

  <!-- Stippling: reduced size difference -->
  <g transform="translate(256 256) rotate(20) scale(1.12)" fill="#FFFFFF" stroke="none">
    <!-- TOP HALF -->
    <circle cx="-10" cy="-70" r="2.9"/>
    <circle cx="16"  cy="-76" r="2.7"/>
    <circle cx="-28" cy="-58" r="2.8"/>
    <circle cx="30"  cy="-52" r="2.6"/>
    <circle cx="-2"  cy="-46" r="3.0"/>
    <circle cx="12"  cy="-34" r="2.7"/>
    <circle cx="-20" cy="-36" r="2.6"/>
    <circle cx="0"   cy="-60" r="2.7"/>
    <circle cx="24"  cy="-64" r="2.8"/>
    <circle cx="-32" cy="-44" r="2.7"/>

    <!-- BOTTOM HALF -->
    <circle cx="-26" cy="26" r="5.8"/>
    <circle cx="-36" cy="22" r="3.1"/>
    <circle cx="-18" cy="18" r="3.0"/>
    <circle cx="-22" cy="36" r="3.1"/>
    <circle cx="-34" cy="34" r="2.9"/>

    <circle cx="28" cy="36" r="6.2"/>
    <circle cx="18" cy="30" r="3.2"/>
    <circle cx="40" cy="30" r="3.1"/>
    <circle cx="18" cy="44" r="3.0"/>
    <circle cx="40" cy="46" r="3.0"/>

    <circle cx="-8" cy="64" r="6.4"/>
    <circle cx="-20" cy="58" r="3.2"/>
    <circle cx="4"   cy="54" r="3.1"/>
    <circle cx="-18" cy="72" r="3.0"/>
    <circle cx="6"   cy="74" r="3.0"/>

    <circle cx="36" cy="76" r="6.0"/>
    <circle cx="24" cy="68" r="3.1"/>
    <circle cx="48" cy="68" r="3.1"/>
    <circle cx="24" cy="84" r="3.0"/>
    <circle cx="48" cy="86" r="3.0"/>

    <circle cx="-40" cy="52" r="3.1"/>
    <circle cx="6"   cy="34" r="3.2"/>
    <circle cx="52"  cy="56" r="3.0"/>
  </g>

  <!-- Subtle vignette -->
  <defs>
    <radialGradient id="v" cx="50%" cy="40%" r="70%">
      <stop offset="0%" stop-color="rgba(0,0,0,0)"/>
      <stop offset="100%" stop-color="rgba(0,0,0,0.12)"/>
    </radialGradient>
  </defs>
  <circle cx="256" cy="256" r="256" fill="url(#v)"/>
</svg>
