<!-- BROWNIE -->
<svg xmlns="http://www.w3.org/2000/svg" viewBox="0 0 256 256" role="img" aria-labelledby="titleBrownie descBrownie">
  <title id="titleBrownie">Brownie Icon</title>
  <desc id="descBrownie">A fudgy brownie square with nuts and crackled top.</desc>
  <defs>
    <linearGradient id="brownie-top" x1="0" y1="0" x2="0" y2="1">
      <stop offset="0%" stop-color="#6B3A25"/>
      <stop offset="100%" stop-color="#3E1F12"/>
    </linearGradient>
    <linearGradient id="brownie-side" x1="0" y1="0" x2="1" y2="1">
      <stop offset="0%" stop-color="#532A19"/>
      <stop offset="100%" stop-color="#2E160D"/>
    </linearGradient>
    <radialGradient id="nut-grad" cx="50%" cy="40%" r="70%">
      <stop offset="0%" stop-color="#FFE0A9"/>
      <stop offset="100%" stop-color="#D2A464"/>
    </radialGradient>
  </defs>

  <!-- shadow -->
  <ellipse cx="128" cy="206" rx="70" ry="14" fill="rgba(0,0,0,0.18)"/>

  <!-- brownie cube -->
  <g transform="translate(40,56)">
    <!-- top -->
    <path d="M20 20 L140 20 L176 48 L56 48 Z" fill="url(#brownie-top)"/>
    <!-- front side -->
    <path d="M56 48 L176 48 L176 112 L56 112 Z" fill="url(#brownie-side)"/>
    <!-- left side -->
    <path d="M20 20 L56 48 L56 112 L20 84 Z" fill="#3B1E12"/>

    <!-- crackle lines -->
    <g stroke="rgba(255,255,255,0.15)" stroke-width="2" stroke-linecap="round" fill="none">
      <path d="M32 36 C60 30 84 42 116 36"/>
      <path d="M70 30 C92 42 128 40 152 30"/>
      <path d="M48 42 C64 46 82 44 100 46"/>
    </g>

    <!-- nuts -->
    <g>
      <ellipse cx="88" cy="36" rx="6" ry="4" fill="url(#nut-grad)"/>
      <ellipse cx="136" cy="34" rx="5" ry="3" fill="url(#nut-grad)"/>
      <ellipse cx="60" cy="34" rx="5" ry="3" fill="url(#nut-grad)"/>
      <ellipse cx="112" cy="44" rx="6" ry="4" fill="url(#nut-grad)"/>
    </g>

    <!-- shine on front -->
    <rect x="60" y="56" width="6" height="44" rx="3" fill="rgba(255,255,255,0.12)"/>
  </g>
</svg>
