<!-- PIECE OF CAKE -->
<svg xmlns="http://www.w3.org/2000/svg" viewBox="0 0 256 256" role="img" aria-labelledby="titleCake descCake">
  <title id="titleCake">Cake Slice Icon</title>
  <desc id="descCake">A layered cake slice with frosting and a cherry on top on a plate.</desc>
  <defs>
    <linearGradient id="cake-plate" x1="0" y1="0" x2="1" y2="0">
      <stop offset="0%" stop-color="#E6EBF5"/>
      <stop offset="100%" stop-color="#C9D1E1"/>
    </linearGradient>
    <linearGradient id="cake-sponge" x1="0" y1="0" x2="0" y2="1">
      <stop offset="0%" stop-color="#F7D9A6"/>
      <stop offset="100%" stop-color="#E9B975"/>
    </linearGradient>
    <linearGradient id="cake-cream" x1="0" y1="0" x2="0" y2="1">
      <stop offset="0%" stop-color="#FFF2F7"/>
      <stop offset="100%" stop-color="#FFD9E7"/>
    </linearGradient>
    <linearGradient id="cake-choco" x1="0" y1="0" x2="0" y2="1">
      <stop offset="0%" stop-color="#6E3B27"/>
      <stop offset="100%" stop-color="#4A2415"/>
    </linearGradient>
    <radialGradient id="cake-cherry" cx="50%" cy="40%" r="60%">
      <stop offset="0%" stop-color="#FF6B7D"/>
      <stop offset="100%" stop-color="#C5152C"/>
    </radialGradient>
    <linearGradient id="cake-shadow" x1="0" y1="0" x2="1" y2="1">
      <stop offset="0%" stop-color="rgba(0,0,0,0.0)"/>
      <stop offset="100%" stop-color="rgba(0,0,0,0.15)"/>
    </linearGradient>
  </defs>

  <!-- cake base -->
  <g transform="translate(42,52)">
    <!-- slice body -->
    <path d="M18 54 L132 10 C140 7 150 11 152 20 L160 58 C162 67 157 76 148 79 L42 114 C31 118 19 111 16 100 L10 73 C8 64 11 57 18 54Z" fill="url(#cake-sponge)"/>

    <!-- cream layers -->
    <path d="M22 66 L148 24 L150 34 L26 76 Z" fill="url(#cake-cream)"/>
    <path d="M28 90 L154 48 L156 60 L32 102 Z" fill="url(#cake-cream)"/>

    <!-- chocolate glaze on top -->
    <path d="M120 6 C138 2 156 12 160 28 C160 28 132 36 120 38 C98 42 60 52 36 58 C26 60 20 54 22 48 C26 36 34 28 44 26 Z" fill="url(#cake-choco)"/>

    <!-- cherry -->
    <circle cx="134" cy="18" r="10" fill="url(#cake-cherry)"/>
    <path d="M134 18 C132 8 120 6 116 10" fill="none" stroke="#3B7C2A" stroke-width="3" stroke-linecap="round"/>

    <!-- highlight and shadow -->
    <path d="M20 60 L148 18" stroke="white" stroke-opacity="0.25" stroke-width="3" stroke-linecap="round"/>
    <path d="M30 106 L156 64" stroke="url(#cake-shadow)" stroke-width="10" stroke-linecap="round" opacity="0.5"/>

    <!-- front edge shine -->
    <path d="M40 112 C60 104 92 96 116 88" stroke="white" stroke-opacity="0.18" stroke-width="4" stroke-linecap="round"/>
  </g>
</svg>
