<!-- COOKIE -->
<svg xmlns="http://www.w3.org/2000/svg" viewBox="0 0 256 256" role="img" aria-labelledby="titleCookie descCookie">
  <title id="titleCookie">Cookie Icon</title>
  <desc id="descCookie">A golden cookie with a bite taken out and chocolate chips.</desc>
  <defs>
    <radialGradient id="cookie-grad-base" cx="50%" cy="40%" r="65%">
      <stop offset="0%" stop-color="#F8D9A1"/>
      <stop offset="60%" stop-color="#E9B76C"/>
      <stop offset="100%" stop-color="#C88A42"/>
    </radialGradient>
    <radialGradient id="cookie-grad-shadow" cx="40%" cy="70%" r="70%">
      <stop offset="0%" stop-color="rgba(0,0,0,0)" />
      <stop offset="100%" stop-color="rgba(0,0,0,0.15)" />
    </radialGradient>
    <linearGradient id="chip-grad" x1="0" y1="0" x2="1" y2="1">
      <stop offset="0%" stop-color="#4E2E1F"/>
      <stop offset="100%" stop-color="#2C160F"/>
    </linearGradient>
    <mask id="cookie-bite">
      <rect width="100%" height="100%" fill="#fff"/>
      <!-- bite holes (transparent) -->
      <circle cx="200" cy="58" r="26" fill="#000"/>
      <circle cx="182" cy="78" r="14" fill="#000"/>
      <circle cx="210" cy="85" r="12" fill="#000"/>
    </mask>
  </defs>

  <!-- cookie base -->
  <g mask="url(#cookie-bite)">
    <circle cx="128" cy="128" r="96" fill="url(#cookie-grad-base)"/>
    <!-- subtle uneven edge -->
    <path d="M38,132c2,50,40,90,90,90 45,0,83-32,92-75" fill="none" stroke="rgba(0,0,0,0.08)" stroke-width="4" stroke-linecap="round"/>
    <!-- highlight -->
    <ellipse cx="100" cy="90" rx="42" ry="26" fill="rgba(255,255,255,0.18)" />
    <!-- baked spots -->
    <circle cx="76" cy="152" r="10" fill="rgba(0,0,0,0.06)"/>
    <circle cx="160" cy="140" r="8" fill="rgba(0,0,0,0.06)"/>
    <circle cx="118" cy="176" r="7" fill="rgba(0,0,0,0.06)"/>
    <!-- shadow vignette -->
    <circle cx="128" cy="138" r="98" fill="url(#cookie-grad-shadow)"/>
  </g>

  <!-- chocolate chips -->
  <g fill="url(#chip-grad)">
    <ellipse cx="86" cy="116" rx="10" ry="12" transform="rotate(-18 86 116)"/>
    <ellipse cx="136" cy="98" rx="8" ry="10" transform="rotate(12 136 98)"/>
    <ellipse cx="112" cy="142" rx="9" ry="11" transform="rotate(-8 112 142)"/>
    <ellipse cx="162" cy="166" rx="9" ry="11" transform="rotate(18 162 166)"/>
    <ellipse cx="70" cy="176" rx="7" ry="9" transform="rotate(-12 70 176)"/>
    <ellipse cx="154" cy="118" rx="7" ry="9" transform="rotate(8 154 118)"/>
  </g>

  <!-- tiny chip highlights -->
  <g fill="rgba(255,255,255,0.22)">
    <circle cx="82" cy="110" r="2"/>
    <circle cx="132" cy="92" r="2"/>
    <circle cx="109" cy="136" r="2"/>
    <circle cx="158" cy="160" r="2"/>
  </g>
</svg>
